# xmcd
#
# Track frame offsets:
#	150
#	16259
#	40932
#	58798
#	69756
#	82702
#	95323
#	112830
#	121945
#	132356
#	150949
#	170707
#	188370
#	215191
#
# Disc length: 2933 seconds
#
# Revision: 6
# Processed by: cddbd v1.5.2PL0 Copyright (c) Steve Scherf et al.
# Submitted via: EZCDAudioConverter 2.1.7.1
#
DISCID=a70b730e
DTITLE=V/A - Island Folk
DYEAR=2009
DGENRE=MOJO
TTITLE0=John Martyn - Go Down Easy
TTITLE1=Fotheringay - The Sea
TTITLE2=Jethro Tull - We Used To Know
TTITLE3=Nirvana - Lonely Boy
TTITLE4=John and Beverley Martyn - Primrose Hill
TTITLE5=Sandy Denny - No More Sad Refrains
TTITLE6=Richard and Linda Thompson - The End Of The Rainbow
TTITLE7=Incredible String Band - Red Hair
TTITLE8=Claire Hamill - Where Are Your Smiles At
TTITLE9=Fairport Convention - She Moves Through The Fair
TTITLE10=Dr. Strangely Strange - Dark-Haired Lady
TTITLE11=Quintessence - Pearl And Bird
TTITLE12=Amazing Blondel - Willowood
TTITLE13=Data
EXTD=
EXTT0=
EXTT1=
EXTT2=
EXTT3=
EXTT4=
EXTT5=
EXTT6=
EXTT7=
EXTT8=
EXTT9=
EXTT10=
EXTT11=
EXTT12=
EXTT13=
PLAYORDER=
